:SAMPLES-PER-SECOND 30
:FULLY-SPECIFIED
:DEGREES
214
root  -8.63867 39.9453 40.0542 -2.31968 -8.28271 0.443204
RightUpLeg  -6.5831 -2.61909 1.97124
RightLeg  12.6584 3.05006 -1.683
RightFoot  -6.26347 -0.0215104 0.592696
RightToes  -5.82073e-011 -3.18055e-015 -2.98177e-016
Spine  3.86984 1.23258 1.38568
Spine1  7.13744 1.31184 0.717157
HEad  -16.4258 9.20116 -0.95965
LeftShoulder1  -3.88251e-019 9.70628e-020 -3.87848e-018
LeftArm  -22.7659 71.3057 -41.6616
LeftForeArm  -49.4107 -9.05659 5.34119
LeftHand  -0.416565 2.65149 20.7562
RightShoulder  7.85754 10.5566 37.1262
RightArm  13.9085 -51.9234 8.22789
RightForeArm  -1.00011 18.9902 -9.27286
RightHand  -1.15473 2.43038 -16.8686
LeftUpLeg  -5.7762 -2.19591 -5.45737
LeftLeg  13.4123 11.662 7.53947
LeftFoot  -7.56325 0.0736755 -1.94825
LeftToes  5.79026e-011 9.70705e-012 -3.73859e-011
215
root  -8.68384 39.9867 40.0248 -2.5618 -8.1624 0.341878
RightUpLeg  -5.66859 -1.90872 1.9029
RightLeg  11.5542 2.15442 -1.12144
RightFoot  -6.16875 -0.0469635 0.989448
RightToes  -5.82073e-011 -3.18055e-015 -2.98177e-016
Spine  3.48522 1.2656 1.85459
Spine1  7.55117 1.41529 0.551642
HEad  -15.8844 8.77691 -0.556817
LeftShoulder1  -3.88251e-019 9.70628e-020 -3.87848e-018
LeftArm  -36.6172 69.2884 -55.459
LeftForeArm  -63.7601 -10.791 6.90003
LeftHand  -0.240435 3.81923 24.0639
RightShoulder  7.83776 10.5459 37.0513
RightArm  16.485 -50.6068 11.9604
RightForeArm  -7.03796 22.6018 -11.8537
RightHand  -1.25298 3.08184 -16.9222
LeftUpLeg  -5.2685 -2.1926 -5.24644
LeftLeg  12.8788 11.5973 7.25111
LeftFoot  -7.52983 0.0860834 -2.18901
LeftToes  5.79026e-011 9.70705e-012 -3.73859e-011
216
root  -8.73346 40.0022 39.9842 -2.997 -7.59532 0.391144
RightUpLeg  -4.95211 -1.86436 1.68901
RightLeg  11.2188 1.46588 -0.794822
RightFoot  -6.22721 -0.0575975 1.17335
RightToes  -5.82073e-011 -3.18055e-015 -2.98177e-016
Spine  3.3714 1.09236 2.18663
Spine1  7.99383 1.35943 0.301897
HEad  -15.5302 8.3979 0.380985
LeftShoulder1  -3.88251e-019 9.70628e-020 -3.87848e-018
LeftArm  -43.896 65.7542 -64.0108
LeftForeArm  -66.747 -11.8978 7.0454
LeftHand  -0.0806879 4.60914 24.1854
RightShoulder  7.97057 10.6386 37.5005
RightArm  17.9845 -48.375 14.7843
RightForeArm  -9.82252 26.3081 -13.6974
RightHand  -1.30585 3.41923 -16.9717
LeftUpLeg  -4.78868 -2.27257 -5.21514
LeftLeg  12.6154 11.1437 7.05123
LeftFoot  -7.38565 0.0977468 -2.36096
LeftToes  5.79026e-011 9.70705e-012 -3.73859e-011
217
root  -8.76096 39.9954 39.9487 -3.33358 -7.09774 0.345595
RightUpLeg  -4.56602 -1.88192 1.69018
RightLeg  11.2572 0.956886 -0.83795
RightFoot  -6.19074 -0.0645469 1.27804
RightToes  -5.82073e-011 -3.18055e-015 -2.98177e-016
Spine  3.07653 0.955808 2.69215
Spine1  8.69665 1.34383 -0.0241285
HEad  -15.5415 7.95548 1.1765
LeftShoulder1  -3.88251e-019 9.70628e-020 -3.87848e-018
LeftArm  -44.6066 61.8009 -68.338
LeftForeArm  -56.0101 -12.6489 5.37212
LeftHand  -0.0961081 4.41483 20.3056
RightShoulder  7.99385 10.6696 37.5447
RightArm  19.5868 -45.9245 17.4362
RightForeArm  -11.2777 29.7899 -15.5177
RightHand  -1.36138 3.46121 -17.5942
LeftUpLeg  -4.61559 -2.48771 -5.17637
LeftLeg  12.7893 10.8123 7.12569
LeftFoot  -7.36846 0.0961151 -2.31904
LeftToes  5.79026e-011 9.70705e-012 -3.73859e-011
218
root  -8.77161 39.9843 39.9121 -3.53952 -6.84931 0.198701
RightUpLeg  -4.33403 -1.78056 1.85783
RightLeg  11.2491 0.651482 -0.942957
RightFoot  -6.28448 -0.0762044 1.49383
RightToes  -5.82073e-011 -3.18055e-015 -2.98177e-016
Spine  2.59636 0.984649 3.19798
Spine1  9.61542 1.42714 -0.213915
HEad  -15.8776 7.28202 1.43268
LeftShoulder1  -3.88251e-019 9.70628e-020 -3.87848e-018
LeftArm  -42.2596 58.0141 -71.3403
LeftForeArm  -38.8624 -14.3629 3.26837
LeftHand  -0.385248 2.06951 15.5374
RightShoulder  7.7761 10.5578 36.7154
RightArm  20.3927 -44.0146 20.3355
RightForeArm  -11.0084 33.0894 -17.4861
RightHand  -1.49687 3.95607 -18.3295
LeftUpLeg  -4.61422 -2.72229 -5.06724
LeftLeg  13.1216 10.7443 7.31687
LeftFoot  -7.592 0.0880026 -2.25868
LeftToes  5.79026e-011 9.70705e-012 -3.73859e-011
219
root  -8.79052 39.9815 39.856 -3.63768 -6.68743 0.086803
RightUpLeg  -4.27373 -1.79841 1.97121
RightLeg  11.2963 0.52748 -0.925133
RightFoot  -6.59759 -0.0948673 1.90667
RightToes  -5.82073e-011 -3.18055e-015 -2.98177e-016
Spine  2.35422 1.04426 3.60686
Spine1  10.2356 1.55657 -0.491703
HEad  -16.2501 6.49445 1.56491
LeftShoulder1  -3.88251e-019 9.70628e-020 -3.87848e-018
LeftArm  -39.7163 54.4817 -74.2982
LeftForeArm  -23.7575 -17.7263 2.08037
LeftHand  -0.655451 -1.16024 12.4474
RightShoulder  7.51094 10.4114 35.7115
RightArm  20.5012 -42.6929 22.9546
RightForeArm  -10.0979 36.2138 -19.5568
RightHand  -1.6364 4.71394 -18.553
LeftUpLeg  -4.66453 -2.80853 -4.92976
LeftLeg  13.2957 10.6807 7.40215
LeftFoot  -7.89845 0.0925017 -2.51013
LeftToes  5.79026e-011 9.70705e-012 -3.73859e-011
220
root  -8.82493 39.9836 39.7909 -3.5324 -6.48362 0.0773138
RightUpLeg  -4.53491 -1.96067 1.97681
RightLeg  11.5393 0.392227 -0.909694
RightFoot  -7.01087 -0.118538 2.49674
RightToes  -5.82073e-011 -3.18055e-015 -2.98177e-016
Spine  2.48111 1.0106 4.0022
Spine1  10.1549 1.69485 -1.14626
HEad  -16.389 5.86722 2.09501
LeftShoulder1  -3.88251e-019 9.70628e-020 -3.87848e-018
LeftArm  -35.8486 51.2139 -76.9988
LeftForeArm  -15.0987 -21.8971 2.20016
LeftHand  -0.73886 -3.20369 10.6237
RightShoulder  7.40471 10.3529 35.3013
RightArm  21.2209 -41.688 24.2969
RightForeArm  -10.6681 39.3378 -21.756
RightHand  -1.69831 4.94512 -18.8247
LeftUpLeg  -4.88696 -2.72948 -4.82383
LeftLeg  13.3093 10.4458 7.3488
LeftFoot  -8.13703 0.106305 -2.96283
LeftToes  5.79026e-011 9.70705e-012 -3.73859e-011
221
root  -8.85736 39.9877 39.754 -3.23298 -6.2716 0.155708
RightUpLeg  -4.98125 -2.13526 1.91956
RightLeg  11.7967 0.231229 -0.969257
RightFoot  -7.48435 -0.137156 3.10666
RightToes  -5.82073e-011 -3.18055e-015 -2.98177e-016
Spine  2.71711 0.945326 4.29463
Spine1  9.54329 1.80464 -1.88491
HEad  -16.2766 5.43213 2.88462
LeftShoulder1  -3.88251e-019 9.70628e-020 -3.87848e-018
LeftArm  -28.1173 48.3681 -78.9861
LeftForeArm  -14.2399 -26.1947 3.81077
LeftHand  -0.712208 -4.04988 9.34918
RightShoulder  7.41293 10.3686 35.3082
RightArm  23.073 -41.1602 24.0217
RightForeArm  -12.7861 42.7419 -24.3591
RightHand  -1.79533 4.9841 -19.7939
LeftUpLeg  -5.23809 -2.65409 -4.82263
LeftLeg  13.2352 10.2113 7.24224
LeftFoot  -8.34193 0.110932 -3.21482
LeftToes  5.79026e-011 9.70705e-012 -3.73859e-011
222
root  -8.87476 39.997 39.7625 -2.9468 -6.05608 0.303037
RightUpLeg  -5.31086 -2.32782 1.78322
RightLeg  11.9403 0.216027 -1.01536
RightFoot  -7.96344 -0.139887 3.48346
RightToes  -5.82073e-011 -3.18055e-015 -2.98177e-016
Spine  2.90472 0.88839 4.28209
Spine1  8.88508 1.79766 -2.20551
HEad  -16.1093 5.04687 3.42049
LeftShoulder1  -3.88251e-019 9.70628e-020 -3.87848e-018
LeftArm  -19.258 46.2669 -79.9526
LeftForeArm  -15.6065 -31.0908 6.11137
LeftHand  -0.662098 -4.6926 8.17004
RightShoulder  7.38628 10.3692 35.1706
RightArm  25.1452 -41.5168 22.7426
RightForeArm  -14.9306 46.3122 -27.5211
RightHand  -1.99485 5.58276 -20.793
LeftUpLeg  -5.4517 -2.83874 -4.97476
LeftLeg  13.0696 10.2456 7.16367
LeftFoot  -8.56138 0.104236 -3.21745
LeftToes  5.79026e-011 9.70705e-012 -3.73859e-011
223
root  -8.88684 40.0067 39.7989 -2.75129 -5.79449 0.471903
RightUpLeg  -5.5187 -2.55715 1.59963
RightLeg  12.0907 0.292965 -1.02958
RightFoot  -8.26505 -0.130343 3.50238
RightToes  -5.82073e-011 -3.18055e-015 -2.98177e-016
Spine  3.09888 0.722621 4.01766
Spine1  8.4483 1.59165 -2.14654
HEad  -16.0927 4.80291 3.54845
LeftShoulder1  -3.88251e-019 9.70628e-020 -3.87848e-018
LeftArm  -13.9043 45.1323 -79.8099
LeftForeArm  -12.7629 -37.255 7.94905
LeftHand  -0.615583 -5.80381 6.87764
RightShoulder  7.32202 10.3457 34.8942
RightArm  26.9592 -42.6868 21.043
RightForeArm  -16.8723 49.5771 -30.9304
RightHand  -2.1826 6.28336 -21.385
LeftUpLeg  -5.52927 -3.2625 -5.18987
LeftLeg  12.8927 10.4622 7.14527
LeftFoot  -8.70804 0.101671 -3.26882
LeftToes  5.79026e-011 9.70705e-012 -3.73859e-011
224
root  -8.90557 40.0045 39.8365 -2.48277 -5.58857 0.592189
RightUpLeg  -5.88816 -2.85672 1.48072
RightLeg  12.3956 0.415827 -1.05636
RightFoot  -8.37175 -0.118207 3.3041
RightToes  -5.82073e-011 -3.18055e-015 -2.98177e-016
Spine  3.41266 0.377796 3.71938
Spine1  8.09027 1.21295 -2.11716
HEad  -16.338 5.00351 3.55523
LeftShoulder1  -3.88251e-019 9.70628e-020 -3.87848e-018
LeftArm  -10.9754 44.8952 -78.9895
LeftForeArm  -8.96938 -44.0142 10.55
LeftHand  -0.558776 -7.27655 5.56741
RightShoulder  7.33635 10.3664 34.9214
RightArm  29.475 -44.0147 18.6263
RightForeArm  -19.1697 52.2857 -34.2111
RightHand  -2.38597 6.57264 -22.7645
LeftUpLeg  -5.76025 -3.4151 -5.2934
LeftLeg  12.83 10.4305 7.10922
LeftFoot  -8.68696 0.110456 -3.47862
LeftToes  5.79026e-011 9.70705e-012 -3.73859e-011
225
root  -8.92145 39.9705 39.8526 -2.09356 -5.63772 0.703605
RightUpLeg  -6.68576 -3.74049 1.4141
RightLeg  13.1716 1.30522 -1.08786
RightFoot  -8.62397 -0.101349 3.09045
RightToes  -5.82073e-011 -3.18055e-015 -2.98177e-016
Spine  4.07468 -0.0470787 3.34841
Spine1  7.53873 0.75353 -2.15161
HEad  -16.9148 5.75107 3.66668
LeftShoulder1  -3.88251e-019 9.70628e-020 -3.87848e-018
LeftArm  -10.3032 45.3074 -77.8242
LeftForeArm  -6.69854 -50.5175 13.6751
LeftHand  -0.454876 -8.75282 4.14224
RightShoulder  7.43763 10.4383 35.2784
RightArm  33.3414 -45.0307 15.1289
RightForeArm  -20.837 54.3635 -37.1568
RightHand  -2.81456 7.1206 -25.5628
LeftUpLeg  -6.29927 -2.71996 -5.29714
LeftLeg  13.0492 9.81117 7.00211
LeftFoot  -8.61127 0.12288 -3.73249
LeftToes  5.79026e-011 9.70705e-012 -3.73859e-011
